<svg width="16" height="16" xmlns="http://www.w3.org/2000/svg" preserveAspectRatio="none">
 <defs>
  <pattern id="wm_tile" x="0" y="0" width="20%" height="27%">
   <g id="wm_lm" fill="#cccccc">
    <text font-size="15" transform="rotate(-390 -188.00000000000017,-323) " y="-323" x="-188" id="svg_4"/>
   </g>
  </pattern>
 </defs>
 <!---->
 <g>
  <title>background</title>
  <rect x="-1" y="-1" width="18" height="18" id="canvas_background" fill="none"/>
 </g>
 <g>
  <title>Layer 1</title>
  <g stroke="null" id="shape_5YERcTLURq" transform="translate(233.80859375,-43.39307403564453) scale(1) ">
   <g stroke="null" id="svg_3" transform="matrix(0.059229368782206415,0,0,0.2069541684220109,-150.20464087197263,103.00247847708398) ">
    <svg stroke="null" width="525.4" height="596.492773" viewBox="0 0 525.4 596.4927734375" id="svg_1" x="-1446.948693" y="-552.303665">
     <g stroke="null" id="svg_18">
      <line stroke="rgb(0, 0, 0)" x1="82.83931" x2="277.360696" y1="337.606387" y2="337.606387" stroke-width="0" id="svg_19" stroke-dasharray="2,2"/>
     </g>
     <g stroke="null" id="svg_14">
      <path stroke="#000000" d="m90.74931,272.1164l0,0l49.4,0q2.87,0 2.87,3.07l0,0l0,24.84q0,3.07 -2.87,3.07l0,0l-30.85,0q-2.18,0 -3.07,0.85l0,0q-0.93,0.88 -0.93,2.86l0,0l0,22.63q0,3.06 -2.86,3.06l0,0l-11.69,0q-2.87,0 -2.87,-3.06l0,0l0,-54.25q0,-3.07 2.87,-3.07zm14.55,10.33l0,0l0,10.32q0,2.02 0.93,2.91l0,0q0.89,0.84 3.07,0.84l0,0l12.86,0q2.18,0 3.11,-0.84l0,0q0.89,-0.89 0.89,-2.91l0,0l0,-10.32q0,-2.06 -0.89,-2.91l0,0q-0.97,-0.84 -3.11,-0.84l0,0l-12.86,0q-2.14,0 -3.07,0.84l0,0q-0.93,0.85 -0.93,2.91z" fill="#000000" stroke-width="0" stroke-miterlimit="3" id="svg_17" stroke-dasharray="2,2"/>
      <path stroke="#000000" d="m190.32189,321.7664l0,0l0,-18.31q0,-2.01 -0.93,-2.86l0,0q-0.88,-0.85 -3.06,-0.85l0,0l-30.85,0q-2.87,0 -2.87,-3.06l0,0l0,-21.58q0,-3.07 2.87,-3.07l0,0l49.4,0q2.87,0 2.87,3.07l0,0l0,7.34q0,3.06 -2.87,3.06l0,0l-10,0q-2.86,0 -2.86,-2.74l0,0l0,-1.17q0,-3.43 -4,-3.43l0,0l-13.99,0q-2.14,0 -3.07,0.89l0,0q-0.92,0.85 -0.92,2.86l0,0l0,8.11q0,2.02 0.92,2.86l0,0q0.93,0.85 3.07,0.85l0,0l30.85,0q2.87,0 2.87,3.07l0,0l0,31.62q0,3.06 -2.87,3.06l0,0l-49.4,0q-2.87,0 -2.87,-3.06l0,0l0,-17.91q0,-3.07 2.87,-3.07l0,0l10,0q2.86,0 2.86,3.07l0,0l0,11.25q0,2.06 0.93,2.91l0,0q0.93,0.84 3.06,0.84l0,0l14,0q2.14,0 3.06,-0.84l0,0q0.93,-0.85 0.93,-2.91z" fill="#000000" stroke-width="0" stroke-miterlimit="3" id="svg_16" stroke-dasharray="2,2"/>
      <path stroke="#000000" d="m220.57812,272.1164l0,0l49.4,0q2.87,0 2.87,3.07l0,0l0,24.84q0,3.07 -2.87,3.07l0,0l-2.5,0q-3.75,0 -3.75,2.9l0,0q0,0.89 0.4,1.94l0,0l7.79,20.81q0.28,0.73 0.28,1.13l0,0q0,0.48 -0.56,1.13l0,0q-0.53,0.56 -1.54,0.56l0,0l-10.6,0q-2.46,0 -3.39,-2.62l0,0l-8.31,-23.27q-0.57,-1.53 -1.37,-2.06l0,0q-0.85,-0.52 -2.66,-0.52l0,0l-4.64,0q-2.18,0 -3.07,0.85l0,0q-0.93,0.84 -0.93,2.86l0,0l0,21.62q0,3.06 -2.86,3.06l0,0l-11.69,0q-2.87,0 -2.87,-3.06l0,0l0,-53.24q0,-3.07 2.87,-3.07zm14.55,10.33l0,0l0,10.32q0,2.06 0.93,2.91l0,0q0.89,0.84 3.07,0.84l0,0l12.86,0q2.18,0 3.11,-0.84l0,0q0.89,-0.85 0.89,-2.91l0,0l0,-10.32q0,-2.02 -0.89,-2.86l0,0q-0.93,-0.89 -3.11,-0.89l0,0l-12.86,0q-2.18,0 -3.07,0.89l0,0q-0.93,0.84 -0.93,2.86z" fill="#000000" stroke-width="0" stroke-miterlimit="3" id="svg_15" stroke-dasharray="2,2"/>
     </g>
     <g stroke="null" id="svg_2">
      <path stroke="#52534c" d="m90.74931,272.1164l0,0l49.4,0q2.87,0 2.87,3.07l0,0l0,24.84q0,3.07 -2.87,3.07l0,0l-30.85,0q-2.18,0 -3.07,0.85l0,0q-0.93,0.88 -0.93,2.86l0,0l0,22.63q0,3.06 -2.86,3.06l0,0l-11.69,0q-2.87,0 -2.87,-3.06l0,0l0,-54.25q0,-3.07 2.87,-3.07zm14.55,10.33l0,0l0,10.32q0,2.02 0.93,2.91l0,0q0.89,0.84 3.07,0.84l0,0l12.86,0q2.18,0 3.11,-0.84l0,0q0.89,-0.89 0.89,-2.91l0,0l0,-10.32q0,-2.06 -0.89,-2.91l0,0q-0.97,-0.84 -3.11,-0.84l0,0l-12.86,0q-2.14,0 -3.07,0.84l0,0q-0.93,0.85 -0.93,2.91z" fill="#52534c" stroke-width="0" id="svg_7" stroke-dasharray="2,2"/>
      <path stroke="#52534c" d="m190.32189,321.7664l0,0l0,-18.31q0,-2.01 -0.93,-2.86l0,0q-0.88,-0.85 -3.06,-0.85l0,0l-30.85,0q-2.87,0 -2.87,-3.06l0,0l0,-21.58q0,-3.07 2.87,-3.07l0,0l49.4,0q2.87,0 2.87,3.07l0,0l0,7.34q0,3.06 -2.87,3.06l0,0l-10,0q-2.86,0 -2.86,-2.74l0,0l0,-1.17q0,-3.43 -4,-3.43l0,0l-13.99,0q-2.14,0 -3.07,0.89l0,0q-0.92,0.85 -0.92,2.86l0,0l0,8.11q0,2.02 0.92,2.86l0,0q0.93,0.85 3.07,0.85l0,0l30.85,0q2.87,0 2.87,3.07l0,0l0,31.62q0,3.06 -2.87,3.06l0,0l-49.4,0q-2.87,0 -2.87,-3.06l0,0l0,-17.91q0,-3.07 2.87,-3.07l0,0l10,0q2.86,0 2.86,3.07l0,0l0,11.25q0,2.06 0.93,2.91l0,0q0.93,0.84 3.06,0.84l0,0l14,0q2.14,0 3.06,-0.84l0,0q0.93,-0.85 0.93,-2.91z" fill="#52534c" stroke-width="0" id="svg_6" stroke-dasharray="2,2"/>
      <path stroke="#52534c" d="m220.57812,272.1164l0,0l49.4,0q2.87,0 2.87,3.07l0,0l0,24.84q0,3.07 -2.87,3.07l0,0l-2.5,0q-3.75,0 -3.75,2.9l0,0q0,0.89 0.4,1.94l0,0l7.79,20.81q0.28,0.73 0.28,1.13l0,0q0,0.48 -0.56,1.13l0,0q-0.53,0.56 -1.54,0.56l0,0l-10.6,0q-2.46,0 -3.39,-2.62l0,0l-8.31,-23.27q-0.57,-1.53 -1.37,-2.06l0,0q-0.85,-0.52 -2.66,-0.52l0,0l-4.64,0q-2.18,0 -3.07,0.85l0,0q-0.93,0.84 -0.93,2.86l0,0l0,21.62q0,3.06 -2.86,3.06l0,0l-11.69,0q-2.87,0 -2.87,-3.06l0,0l0,-53.24q0,-3.07 2.87,-3.07zm14.55,10.33l0,0l0,10.32q0,2.06 0.93,2.91l0,0q0.89,0.84 3.07,0.84l0,0l12.86,0q2.18,0 3.11,-0.84l0,0q0.89,-0.85 0.89,-2.91l0,0l0,-10.32q0,-2.02 -0.89,-2.86l0,0q-0.93,-0.89 -3.11,-0.89l0,0l-12.86,0q-2.18,0 -3.07,0.89l0,0q-0.93,0.84 -0.93,2.86z" fill="#52534c" stroke-width="0" id="svg_5" stroke-dasharray="2,2"/>
     </g>
    </svg>
   </g>
  </g>
 </g>
</svg>